<?xml version="1.0" ?><svg viewBox="0 0 512 512" xmlns="http://www.w3.org/2000/svg"><title/><g id="Burrito"><circle cx="357.2241" cy="222.269" r="9.2097" transform="translate(-41.5107 88.0187) rotate(-13.2824)"/><circle cx="343.628" cy="404.6284" r="9.2096" transform="translate(-83.7726 89.7743) rotate(-13.2826)"/><path d="M395.8755,114.22a81.1267,81.1267,0,0,0-104.09-101.43,68.388,68.388,0,0,0-60.11.0363A81.1194,81.1194,0,0,0,126.68,111.5715a20.1419,20.1419,0,0,0-1.56,1.3484,16.3078,16.3078,0,0,0-5.22,11.77V469.36a16.3124,16.3124,0,0,0,5.24,11.78,23.4361,23.4361,0,0,0,16.28,6.16c.36,0,.72,0,1.08-.02l.09-.0039c22.6288,12.4593,66.6685,20.9138,117.3,20.9138,50.6194,0,94.6591-8.457,117.2872-20.9138l.0928.0039c.36.02.72.02,1.08.02a23.4184,23.4184,0,0,0,16.28-6.16,16.3233,16.3233,0,0,0,5.25-11.78V124.69A16.0495,16.0495,0,0,0,395.8755,114.22ZM318.66,21.21a68.1949,68.1949,0,0,1,65.6919,86.2306q-.5957-.1416-1.2024-.2546a68.3179,68.3179,0,0,0-50.8-60.976,23.9741,23.9741,0,0,1-13.77-9.99,68.6686,68.6686,0,0,0-12.2813-13.8607A68.208,68.208,0,0,1,318.66,21.21ZM258.83,87.03A53.24,53.24,0,0,1,308.89,121.9365a203.5357,203.5357,0,0,0-49,28.4634A203.6345,203.6345,0,0,0,209.0439,121.2,53.3766,53.3766,0,0,1,258.83,87.03ZM204.69,21.21a68.1834,68.1834,0,0,1,12.5369,1.1836A68.6259,68.6259,0,0,0,205.79,35.04a24.4518,24.4518,0,0,1-15.61,10.09,68.3719,68.3719,0,0,0-53.4361,49.0453c-.1122-1.6035-.1735-3.2153-.1735-4.8355A68.2017,68.2017,0,0,1,204.69,21.21Zm55.2,405.59q-4.95,4.365-10.18,8.35a194.3712,194.3712,0,0,1-99.44,38.66c-1.78.17-4.64.34-8.29.48a11,11,0,0,1-7.84-2.52,3.5648,3.5648,0,0,1-1.24-2.41V124.69a3.5646,3.5646,0,0,1,1.24-2.41,10.7994,10.7994,0,0,1,7.3-2.54c.16,0,.33.01.49.01,2.33.09,4.12.19,5.33.28a198.8285,198.8285,0,0,1,36.3125,6.3562v70.9219a8.8183,8.8183,0,0,0,17.6365,0V132.1008A191.1319,191.1319,0,0,1,249.72,158.96q5.22,3.99,10.16,8.35,5.13,4.515,9.94,9.43c32.15,32.87,49.86,75.6,49.86,120.31,0,44.22-17.37,86.6-48.9,119.33Q265.545,421.825,259.89,426.8Zm126.99,42.56a3.5741,3.5741,0,0,1-1.25,2.41,10.9548,10.9548,0,0,1-7.84,2.52c-3.65-.14-6.51-.31-8.29-.48a194.2272,194.2272,0,0,1-99.44-38.67q5.2049-4.68,10.08-9.74c33.88-35.17,52.54-80.75,52.54-128.35,0-48.13-19.02-94.09-53.57-129.4q-4.3952-4.5-9.06-8.69a191.02,191.02,0,0,1,46.8492-26.22v14.4474a8.8182,8.8182,0,1,0,17.6363,0V126.8394A198.7482,198.7482,0,0,1,372.51,120.03c1.21-.09,3-.19,5.33-.28.16,0,.33-.01.49-.01a10.7808,10.7808,0,0,1,7.3,2.54,3.5739,3.5739,0,0,1,1.25,2.41Z"/><circle cx="185.5602" cy="386.2092" r="9.2096"/><path d="M167.1409,277.6533a9.21,9.21,0,1,0,9.21,9.21A9.21,9.21,0,0,0,167.1409,277.6533Z"/><path d="M281.299,338.11a9.21,9.21,0,1,0-9.21,9.21A9.21,9.21,0,0,0,281.299,338.11Z"/><path d="M192.3909,222.269a8.8183,8.8183,0,0,0-8.8184,8.8183v13.4405a8.8183,8.8183,0,0,0,17.6365,0V231.0873A8.8181,8.8181,0,0,0,192.3909,222.269Z"/></g></svg>